<svg id="Слой_1" data-name="Слой 1" xmlns="http://www.w3.org/2000/svg" viewBox="0 0 992.13 419.9"><defs><style>.cls-1{fill:#fff;}.cls-2{fill:#e9262a;}.cls-3{fill:#2da5dd;}.cls-4{fill:#1c3864;}.cls-5{fill:#a7a9ac;}</style></defs><title>head-logo</title><path class="cls-1" d="M982.2,228.82c3.28-2.17,6.75-4.53,10.49-7.13l.31-.22h0q-28.77,13-57.12,24c-118,45.8-229.45,65.65-326.33,66.37-135.65,1-242.81-35.38-299.86-90.38H206.06C361.13,368.26,722.49,402.1,982.2,228.82Z" transform="translate(-1.74)"/><path class="cls-2" d="M104.84,221.45H6.57c130.67,138.28,317.68,190.8,474.86,197.66,16.26.71,32.2.92,47.73.71,102-1.49,215.27-23.66,313.78-76.17,56.51-30.13,108.2-70.2,150.06-122.17v0h0C754.65,454.66,278,414.27,104.84,221.45Z" transform="translate(-1.74)"/><path class="cls-3" d="M993,221.47h0l-.31.22c-3.74,2.6-7.21,5-10.49,7.13C722.49,402.1,361.13,368.26,206.06,221.45H104.84C278,414.27,754.65,454.66,993,221.46Z" transform="translate(-1.74)"/><path class="cls-4" d="M264.21,61.32a16.34,16.34,0,0,1-1.61,7.53,16.76,16.76,0,0,1-4.12,5.33,18.36,18.36,0,0,1-5.72,3.36A24.15,24.15,0,0,1,246.3,79v5.43H235.43V79h-.09A25.35,25.35,0,0,1,227,76.91a16.39,16.39,0,0,1-5.59-4.21,15.76,15.76,0,0,1-3.12-6,28.5,28.5,0,0,1-.95-7.62V36.8A16.81,16.81,0,0,1,223,23.74a18.31,18.31,0,0,1,5.83-3.47,19.47,19.47,0,0,1,6.59-1.18V15.64H246.3l.09,3.45a22.05,22.05,0,0,1,6.48,1.39,18.37,18.37,0,0,1,5.72,3.41,16.81,16.81,0,0,1,4.07,5.48,17.42,17.42,0,0,1,1.55,7.52ZM235.43,27.8a10.05,10.05,0,0,0-5.73,2.47A7.48,7.48,0,0,0,227.59,36v26.3a7.58,7.58,0,0,0,.7,3.32,8,8,0,0,0,1.81,2.43,8.47,8.47,0,0,0,2.51,1.52,9.43,9.43,0,0,0,2.82.65ZM254.15,36a7.57,7.57,0,0,0-2.24-5.84,9.16,9.16,0,0,0-5.61-2.37l.09,42.43a10.85,10.85,0,0,0,2.69-.79,9.39,9.39,0,0,0,2.53-1.59,7.53,7.53,0,0,0,1.84-2.37,7,7,0,0,0,.7-3.17Z" transform="translate(-1.74)"/><path class="cls-4" d="M317.73,66.87q0,9-4.12,13.6t-12.94,4.6c-5.89,0-10.16-1.47-12.84-4.4s-4-7.17-4-12.72V33.34a27.33,27.33,0,0,1,.95-7.42,15.8,15.8,0,0,1,3-5.79A13.3,13.3,0,0,1,293,16.37,20.52,20.52,0,0,1,300.77,15a23,23,0,0,1,8.08,1.24,12.17,12.17,0,0,1,5.21,3.62,14.51,14.51,0,0,1,2.81,5.73,31,31,0,0,1,.86,7.61ZM306.86,32.45a10.48,10.48,0,0,0-1.26-5.15c-.83-1.51-2.43-2.27-4.78-2.27a5.37,5.37,0,0,0-3.12.84A5.87,5.87,0,0,0,295.84,28a8.84,8.84,0,0,0-.9,2.77,17.27,17.27,0,0,0-.26,2.81V68.15A8.78,8.78,0,0,0,296,73c.91,1.42,2.47,2.12,4.68,2.12s3.79-.74,4.73-2.22a9.88,9.88,0,0,0,1.41-5.39Z" transform="translate(-1.74)"/><polygon class="cls-4" points="359.85 84.47 359.85 54.4 347.37 54.4 347.37 84.47 336.51 84.47 336.51 15.63 347.37 15.63 347.37 44.41 359.85 44.41 359.85 15.63 370.71 15.63 370.71 84.47 359.85 84.47"/><path class="cls-4" d="M398.1,84.47V97.53H389v-22l4.13-.88a15.74,15.74,0,0,0,3.82-6.88,49,49,0,0,0,1.2-10.34l1.21-41.84h31.38V74.78h4.43V97.53H426V84.47Zm9.76-27.06a101.44,101.44,0,0,1-.8,10.22,18.93,18.93,0,0,1-2.32,7.15h15.09V25.62H408.66Z" transform="translate(-1.74)"/><path class="cls-4" d="M500.32,15a21.47,21.47,0,0,1,7.44,1.18,14.21,14.21,0,0,1,5.18,3.29,12.82,12.82,0,0,1,3,5,20.46,20.46,0,0,1,.95,6.37l-10.56,2.66a11.71,11.71,0,0,0-1.45-6.13A5,5,0,0,0,500.26,25a5.49,5.49,0,0,0-3.09.79,5.3,5.3,0,0,0-1.84,2,8.78,8.78,0,0,0-.91,2.67,16.69,16.69,0,0,0-.25,2.73v35a12.52,12.52,0,0,0,.2,2.18,6,6,0,0,0,.85,2.23,5.27,5.27,0,0,0,1.8,1.74,5.61,5.61,0,0,0,2.94.69q6,0,6.09-8.51c1.81.33,3.61.61,5.43.84s3.63.48,5.43.74c-.13,5.22-1.59,9.33-4.37,12.36s-6.89,4.55-12.33,4.55c-5.76,0-10-1.43-12.78-4.3s-4.13-7.07-4.13-12.61V33.84a29.75,29.75,0,0,1,.86-7.27,15.59,15.59,0,0,1,2.87-6,13.64,13.64,0,0,1,5.28-4,19.15,19.15,0,0,1,8-1.5" transform="translate(-1.74)"/><path class="cls-4" d="M568.62,66.87q0,9-4.11,13.6c-2.75,3.07-7,4.6-13,4.6s-10.15-1.47-12.83-4.4-4-7.17-4-12.72V33.34a27,27,0,0,1,.95-7.42,15.65,15.65,0,0,1,3-5.79,13.09,13.09,0,0,1,5.26-3.76A20.5,20.5,0,0,1,551.66,15a23,23,0,0,1,8.08,1.24A12.08,12.08,0,0,1,565,19.89a14.38,14.38,0,0,1,2.81,5.73,31,31,0,0,1,.85,7.61ZM557.76,32.45a10.59,10.59,0,0,0-1.26-5.15c-.84-1.51-2.43-2.27-4.79-2.27a5.31,5.31,0,0,0-3.11.84A5.9,5.9,0,0,0,546.73,28a9.4,9.4,0,0,0-.91,2.77,18.27,18.27,0,0,0-.24,2.81V68.15a8.86,8.86,0,0,0,1.35,4.8c.91,1.42,2.47,2.12,4.69,2.12s3.79-.74,4.73-2.22a10,10,0,0,0,1.41-5.39Z" transform="translate(-1.74)"/><path class="cls-4" d="M593.87,84.47V97.53h-9.16v-22l4.13-.88a15.76,15.76,0,0,0,3.83-6.88,49.62,49.62,0,0,0,1.2-10.34l1.21-41.84h31.38V74.78h4.42V97.53h-9.14V84.47Zm9.76-27.06a101.15,101.15,0,0,1-.81,10.22,18.93,18.93,0,0,1-2.31,7.15H615.6V25.62H604.43Z" transform="translate(-1.74)"/><polygon class="cls-4" points="646.76 84.47 646.76 15.63 677.84 15.63 677.84 25.61 657.63 25.61 657.63 44.41 675.23 44.41 675.23 54.6 657.63 54.6 657.63 74.48 677.84 74.48 677.84 84.47 646.76 84.47"/><path class="cls-4" d="M722,41.35,707.35,84.48H696.89V15.63h10.56V59.25h.4l14.59-43.62H733V84.48H722.34V41.35ZM709,0a6.07,6.07,0,0,0,.65,2.23A10.11,10.11,0,0,0,711,4.35,7.61,7.61,0,0,0,713,6a4.83,4.83,0,0,0,2.52.65A5.24,5.24,0,0,0,718.16,6a6.45,6.45,0,0,0,2-1.63,7.67,7.67,0,0,0,1.26-2.12A6,6,0,0,0,721.83,0h7.94a16.69,16.69,0,0,1-1.1,4.51A14.46,14.46,0,0,1,726,9a14.41,14.41,0,0,1-4.33,3.37,13.21,13.21,0,0,1-6.18,1.34,14.94,14.94,0,0,1-6.64-1.34A13.38,13.38,0,0,1,704.43,9a13.28,13.28,0,0,1-2.51-4.44A16.64,16.64,0,0,1,701,0Z" transform="translate(-1.74)"/><path class="cls-4" d="M770,15a21.49,21.49,0,0,1,7.45,1.18,14.08,14.08,0,0,1,5.17,3.29,12.72,12.72,0,0,1,3,5,20.46,20.46,0,0,1,1,6.37l-10.56,2.66a11.71,11.71,0,0,0-1.45-6.13A5,5,0,0,0,770,25a5.49,5.49,0,0,0-3.09.79,5.3,5.3,0,0,0-1.84,2,8.78,8.78,0,0,0-.91,2.67,15.65,15.65,0,0,0-.25,2.73v35a14.83,14.83,0,0,0,.2,2.18,6.18,6.18,0,0,0,.85,2.23,5.27,5.27,0,0,0,1.8,1.74,5.61,5.61,0,0,0,2.94.69q6,0,6.09-8.51,2.72.5,5.43.84c1.81.24,3.62.48,5.43.74-.14,5.22-1.59,9.33-4.37,12.36s-6.9,4.55-12.33,4.55c-5.77,0-10-1.43-12.78-4.3S753,73.69,753,68.15V33.84a29.26,29.26,0,0,1,.87-7.27,15.43,15.43,0,0,1,2.86-6,13.67,13.67,0,0,1,5.29-4,19.05,19.05,0,0,1,8-1.5" transform="translate(-1.74)"/><polygon class="cls-4" points="820.49 25.62 820.49 84.48 809.62 84.48 809.62 25.62 798.36 25.62 798.36 15.63 831.77 15.63 831.77 25.62 820.49 25.62"/><path class="cls-4" d="M875.25,48.47a9.64,9.64,0,0,1,6.34,5.63,25,25,0,0,1,1.71,9.5q0,10.8-4.67,15.84t-14.35,5H849.8V15.63h15.28q9.27,0,13.44,4.79t4.18,13.9A19.41,19.41,0,0,1,881,42.63,10.76,10.76,0,0,1,875.25,48Zm-2.91-13.95c0-3.16-.64-5.44-1.92-6.82s-3.39-2.08-6.33-2.08h-3.42v17.8h3.52c2.81,0,4.87-.75,6.18-2.28s2-3.71,2-6.62m.6,28.19c0-3.23-.6-5.63-1.82-7.22s-3.32-2.37-6.33-2.37h-4.12V74.49H865a8,8,0,0,0,4.17-.94A6.51,6.51,0,0,0,871.58,71a10.69,10.69,0,0,0,1.1-3.77,39,39,0,0,0,.26-4.55" transform="translate(-1.74)"/><polygon class="cls-4" points="926.63 41.35 911.93 84.47 901.48 84.47 901.48 15.64 912.04 15.64 912.04 59.25 912.44 59.25 927.03 15.64 937.59 15.64 937.59 84.47 926.93 84.47 926.93 41.35 926.63 41.35"/><path class="cls-4" d="M957.35,84.48l3.91-21.88a23,23,0,0,1,2.21-6.3,11.22,11.22,0,0,1,4.23-4.41,11.72,11.72,0,0,1-6.64-6,23.23,23.23,0,0,1-1.81-9.64q0-10.18,5-15.42c3.33-3.49,7.86-5.24,13.64-5.24h16V84.48H983V55.09h-2.82A7.6,7.6,0,0,0,975,57.27c-1.57,1.45-2.69,4-3.36,7.72L968.3,84.48Zm21.41-58.86q-4.92,0-6.89,2.92a13.57,13.57,0,0,0-2,7.66q0,5.05,2.45,7a10,10,0,0,0,6.3,1.92H983V25.62Z" transform="translate(-1.74)"/><polygon class="cls-4" points="248.34 141.78 230.12 195.26 217.14 195.26 217.14 109.89 230.24 109.89 230.24 163.98 230.74 163.98 248.83 109.89 261.93 109.89 261.93 195.26 248.71 195.26 248.71 141.78 248.34 141.78"/><polygon class="cls-4" points="327.79 195.26 327.79 157.97 312.31 157.97 312.31 195.26 298.86 195.26 298.86 109.89 312.31 109.89 312.31 145.58 327.79 145.58 327.79 109.89 341.27 109.89 341.27 195.26 327.79 195.26"/><polygon class="cls-4" points="407.5 195.26 407.5 157.97 392.03 157.97 392.03 195.26 378.56 195.26 378.56 109.89 392.03 109.89 392.03 145.58 407.5 145.58 407.5 109.89 420.97 109.89 420.97 195.26 407.5 195.26"/><path class="cls-4" d="M501.31,173.43q0,11.16-5.1,16.86t-16,5.7q-10.94,0-15.92-5.46t-5-15.76V131.85a33.56,33.56,0,0,1,1.18-9.2,19.31,19.31,0,0,1,3.67-7.18,16.28,16.28,0,0,1,6.53-4.66,25.44,25.44,0,0,1,9.64-1.65,28.21,28.21,0,0,1,10,1.53,15.16,15.16,0,0,1,6.47,4.47,18,18,0,0,1,3.48,7.13,38.13,38.13,0,0,1,1.06,9.43Zm-13.47-42.69a13,13,0,0,0-1.57-6.38c-1-1.87-3-2.82-5.92-2.82a6.62,6.62,0,0,0-3.86,1,7.23,7.23,0,0,0-2.32,2.58,11.34,11.34,0,0,0-1.12,3.43,21.75,21.75,0,0,0-.32,3.5V175a10.85,10.85,0,0,0,1.69,5.95c1.13,1.75,3.06,2.64,5.79,2.64s4.71-.92,5.88-2.77a12.24,12.24,0,0,0,1.75-6.68Z" transform="translate(-1.74)"/><path class="cls-4" d="M569.67,150.6a12,12,0,0,1,7.86,7,30.8,30.8,0,0,1,2.13,11.77q0,13.38-5.81,19.63t-17.78,6.26h-18V109.89h19q11.48,0,16.65,6t5.18,17.24a24,24,0,0,1-2.06,10.29,13.31,13.31,0,0,1-7.17,6.63Zm-3.62-17.27c0-3.93-.79-6.75-2.37-8.48s-4.2-2.56-7.86-2.56h-4.24v22.07h4.36q5.23,0,7.68-2.83c1.62-1.87,2.43-4.61,2.43-8.2m.75,34.94c0-4-.75-7-2.25-9s-4.11-2.95-7.86-2.95h-5.11v26.5h5.36a10,10,0,0,0,5.18-1.16,8,8,0,0,0,3-3.13,12.81,12.81,0,0,0,1.38-4.67,48.46,48.46,0,0,0,.31-5.64" transform="translate(-1.74)"/><path class="cls-4" d="M647.38,195.26,644,177.48h-16c-.58,2.94-1.15,5.91-1.69,8.89s-1.05,5.94-1.55,8.89H611.09q4.35-21.47,8.73-42.69t8.73-42.68h15l17.59,85.37Zm-11.72-65.62q-1.26,8.84-2.62,17.6t-3,17.85h11.85l-5.61-35.45Z" transform="translate(-1.74)"/><polygon class="cls-4" points="733.46 109.89 733.46 182.87 739.08 182.87 739.08 211.44 727.85 211.44 727.85 195.26 691.42 195.26 691.42 109.89 704.9 109.89 704.9 182.87 719.99 182.87 719.99 109.89 733.46 109.89"/><polygon class="cls-4" points="802.32 141.78 784.11 195.26 771.14 195.26 771.14 109.89 784.23 109.89 784.23 163.98 784.73 163.98 802.82 109.89 815.92 109.89 815.92 195.26 802.7 195.26 802.7 141.78 802.32 141.78"/><path class="cls-4" d="M851.35,195.26l4.86-27.13a28.23,28.23,0,0,1,2.75-7.8,13.49,13.49,0,0,1,5.23-5.46q-6-2.46-8.22-7.42a28.75,28.75,0,0,1-2.25-11.94q0-12.63,6.16-19.13t16.91-6.49h19.84v85.37H883.16V158.83h-3.5a9.28,9.28,0,0,0-6.42,2.7c-2,1.79-3.36,5-4.18,9.57l-4.12,24.16Zm26.57-73q-6.12,0-8.55,3.62a16.75,16.75,0,0,0-2.44,9.5c0,4.17,1,7,3.06,8.65a12.25,12.25,0,0,0,7.8,2.39h5.37V122.28Z" transform="translate(-1.74)"/><polygon class="cls-4" points="957.22 176.62 951 160.79 945.66 145.83 945.03 145.83 945.03 195.25 931.56 195.25 931.56 109.89 944.66 109.89 954.07 134.18 960.87 152.7 961.49 152.7 968.49 133.69 977.84 109.89 990.82 109.89 990.82 195.25 977.34 195.25 977.34 146.08 976.84 146.08 971.38 161.28 965.29 176.62 957.22 176.62"/><path class="cls-4" d="M30.72,15H29.1A28.84,28.84,0,0,0,10.25,21.5Q2.35,28,2.35,36.92V69.26H30.62V43.64a5.12,5.12,0,0,1,2-4.11,7.71,7.71,0,0,1,5-1.61h9.73a7.7,7.7,0,0,1,5,1.61,5.1,5.1,0,0,1,2,4.11V66.78a20.59,20.59,0,0,1-.61,5.59,13,13,0,0,1-1.82,3.86l-23.76,34.2a99.64,99.64,0,0,1,19,18.28L72.57,93.39a64.54,64.54,0,0,0,7.9-12.18q2.75-5.73,2.74-15.68V50.47A186.66,186.66,0,0,0,64.46,35.36C53.19,27.33,40.46,19.61,30.72,15Z" transform="translate(-1.74)"/><path class="cls-4" d="M178.47,87.42A28.82,28.82,0,0,0,159.63,81H141.39a32.92,32.92,0,0,0-4.71.37,17.28,17.28,0,0,0-3.8.87l1.82-43.54h51.37V15h-76.9l-2.78,58.24Q121.54,88.48,136,103.92a10.74,10.74,0,0,1,1.16-.08h13.38a7.65,7.65,0,0,1,5,1.62,5.08,5.08,0,0,1,2,4.11V127.5c6.85,8.54,21.86,29,28.88,44.09V102.85Q186.38,93.9,178.47,87.42Z" transform="translate(-1.74)"/><path class="cls-4" d="M104.61,110.81h24.32c.37-4.26,2.73-6.55,7-6.89q-14.43-15.44-29.58-30.65Z" transform="translate(-1.74)"/><path class="cls-4" d="M157.5,127.5v41.27a5.08,5.08,0,0,1-2,4.11,7.65,7.65,0,0,1-5,1.62H138.35a7.66,7.66,0,0,1-5-1.62,5.08,5.08,0,0,1-2-4.11V142.9H103.09v32.59q0,9,7.9,15.43a28.83,28.83,0,0,0,18.85,6.46h29.79a28.82,28.82,0,0,0,18.84-6.46q7.91-6.48,7.91-15.43v-3.9C179.36,156.51,164.35,136,157.5,127.5Z" transform="translate(-1.74)"/><path class="cls-4" d="M75.3,21.5A28.83,28.83,0,0,0,56.46,15H30.72c9.74,4.58,22.47,12.3,33.74,20.33A173.27,173.27,0,0,1,83.21,50.47V36.92Q83.21,28,75.3,21.5Z" transform="translate(-1.74)"/><path class="cls-4" d="M30.62,173.75V157.83a21.67,21.67,0,0,1,.76-5.6,15.71,15.71,0,0,1,2.89-5.6l12.89-17.92a99.64,99.64,0,0,0-19-18.28L10.25,136.19A48,48,0,0,0,4.17,147.5a37.59,37.59,0,0,0-2.43,13.56v36.32H83.21V173.75Z" transform="translate(-1.74)"/><path class="cls-5" d="M287,222H309.5c59.71,57.46,167,90.4,294.52,90.4l5.54,0c103.66-.77,216.57-23.74,326.52-66.41,18.28-7.09,36.86-14.87,55.23-23.14-39.26,48.28-89.24,88.78-148.6,120.43-46.84,25-99.15,44.2-155.46,57.17a754.14,754.14,0,0,1-158.09,18.94c-3.83.05-7.71.08-11.55.08-12,0-24.14-.27-36.16-.79C395.5,414.86,310,397.74,234.24,369.1,144.36,335.12,68.15,285.62,7.73,222H287m0-.5H6.57c130.68,138.28,317.68,190.8,474.86,197.66q18.39.79,36.18.79,5.82,0,11.56-.08c102-1.49,215.27-23.66,313.78-76.17,56.51-30.13,108.2-70.2,150.06-122.17v0q-28.78,13-57.12,24c-118,45.8-229.45,65.65-326.34,66.37l-5.54,0c-133,0-238-36.15-294.32-90.4Z" transform="translate(-1.74)"/></svg>